<svg width="256" height="221" viewBox="0 0 256 221" fill="none" xmlns="http://www.w3.org/2000/svg">
<path d="M247.1 68.8C231.9 60.8 218 53.4 203.3 45.6C202.3 58.3 201.3 70.1 200.3 82.6C215.9 78.1 230.8 73.7 247.1 68.8ZM11 35.3C10.9 35.6 10.8 35.9 10.6 36.3C36.5 59.1 62.4 81.9 88.3 104.7C74.2 82.5 59.4 60.9 44.6 39.5C43.9 38.5 42.7 37.4 41.6 37.3C31.4 36.5 21.2 35.9 11 35.3ZM190.4 123.6C190.8 123.4 191.2 123.3 191.6 123.1C193.6 98.6 195.6 74.1 197.7 48.3C185 60.7 173.4 71.9 161.6 83.3C171.2 97 180.8 110.3 190.4 123.6ZM94.8 210.9C125.8 185.2 155.7 160.3 186.6 134.7C159.5 132 133.9 129.5 108.3 127C103.8 155.1 99.4 182.3 94.8 210.9ZM109.2 121.5C135.4 124.1 161 126.6 187.2 129.3C165.6 98.5 144.5 68.3 122.8 37.2C118.2 65.6 113.8 93.1 109.2 121.5ZM0 29.3C12.6 30 25.2 30.7 38.7 31.4C37.6 29.6 37 28.3 36.2 27.2C31.6 20.5 26.9 13.8 22.4 7.00001C21.4 5.40001 21.3 3.30001 20.8 1.30001C22.7 1.20001 24.6 0.700007 26.3 1.10001C37.1 3.80001 47.8 6.90001 58.6 9.70001C65.8 11.6 73.2 13.1 80.3 15.2C82 15.7 83.2 17.9 84.7 19.3C82.7 19.8 80.5 21.2 78.7 20.7C64 17 49.3 12.9 34.5 9.00001C33.3 8.70001 32 8.50001 29.6 8.00001C54.7 44.4 79.2 80 104.4 116.8C109.1 87.7 113.6 59.9 118.1 31.6C111.5 29.8 105.2 28.1 98.8 26.3C97.5 25.9 95.9 25.9 95 25.1C94 24.2 93.6 22.5 92.9 21.2C94.1 20.6 95.5 19.4 96.5 19.6C104.9 21.7 113.3 23.8 121.5 26.4C123.4 27 125 29.4 126.3 31.2C136.9 46.5 147.4 62 158.1 77.7C159.4 76.6 160.5 75.7 161.6 74.8C173 63.8 184.4 52.9 195.6 41.7C198.9 38.3 201.6 37.6 206 40.1C222.5 49.4 239.3 58.2 256 67.3V72.3C243 76.2 229.9 80.1 216.9 84C214.3 84.8 211.8 85.6 209.3 86.3C199.9 89.1 200 89.1 199.3 98.9C198.6 109 198.1 119.2 196.9 129.3C196.6 132.1 194.9 135.4 192.7 137.2C173 153.9 153.1 170.3 133.1 186.8C120.2 197.4 107.3 207.9 94.3 218.3C92.9 219.4 90.8 220.2 89 220.3C80.7 220.5 72.3 220.5 64 220.3C62.4 220.2 60.9 218.7 59.4 217.9C61 216.9 62.6 215.2 64.2 215.2C72.2 214.9 80.1 215.1 88.6 215.1C91.2 198.7 93.8 182.8 96.3 166.8C95.9 166.6 95.6 166.4 95.2 166.2C74.4 182.1 53.6 198.1 32.8 214C32.9 214.4 32.9 214.8 33 215.1C37.4 215.1 41.8 214.9 46.1 215.2C47.5 215.3 48.7 216.9 50 217.8C48.7 218.7 47.4 220.3 46 220.4C39.2 220.7 32.3 220.6 25.5 220.4C23.9 220.4 22.4 219.3 20.8 218.6C21.7 217.1 22.2 215.2 23.4 214.2C38.1 202.7 53 191.5 67.8 180C76.9 173 86 165.9 94.7 158.6C96.6 157 97.6 153.9 98.1 151.4C99.5 144.1 100.2 136.6 101.7 129.3C102.3 126.2 101.5 124.5 99.3 122.5C77.9 103.6 56.4 84.6 35 65.7C23.2 55.3 11.6 44.8 0 34.3C0 32.6 0 31 0 29.3Z" fill="#00BFFF"/>
</svg>
